<svg aria-hidden="true" style="position: absolute; width: 0; height: 0; overflow: hidden;" version="1.1" xmlns="http://www.w3.org/2000/svg" xmlns:xlink="http://www.w3.org/1999/xlink">
<defs>
<symbol id="icon-chevron-left" viewBox="0 0 24 24">
<path d="M15.707 17.293l-5.293-5.293 5.293-5.293c0.391-0.391 0.391-1.024 0-1.414s-1.024-0.391-1.414 0l-6 6c-0.391 0.391-0.391 1.024 0 1.414l6 6c0.391 0.391 1.024 0.391 1.414 0s0.391-1.024 0-1.414z"></path>
</symbol>
<symbol id="icon-download" viewBox="0 0 21 24">
<path fill="#5e00f5" style="fill: var(--color1, #5e00f5)" d="M10.435 17c-0.267 0-0.534-0.098-0.738-0.293l-3.13-3c-0.408-0.391-0.408-1.023 0-1.414s1.067-0.391 1.475 0l2.393 2.293 2.393-2.293c0.408-0.391 1.067-0.391 1.475 0s0.408 1.023 0 1.414l-3.13 3c-0.203 0.195-0.471 0.293-0.738 0.293zM10.435 17c-0.576 0-1.043-0.447-1.043-1v-6c0-0.552 0.467-1 1.043-1s1.043 0.448 1.043 1v6c0 0.553-0.467 1-1.043 1zM14.609 20h-8.348c-0.576 0-1.043-0.447-1.043-1s0.467-1 1.043-1h8.348c0.577 0 1.043 0.447 1.043 1s-0.466 1-1.043 1zM18.6 24h-16.329c-1.252 0-2.271-0.943-2.271-2.103v-15.764c0-0.269 0.113-0.527 0.314-0.715l5.478-5.133c0.195-0.182 0.457-0.285 0.729-0.285h12.078c1.251 0 2.27 0.942 2.27 2.101v19.799c0 1.158-1.018 2.1-2.27 2.1zM2.087 6.554v15.343c0 0.037 0.070 0.103 0.184 0.103h16.329c0.114 0 0.183-0.065 0.183-0.101v-19.798c0-0.036-0.069-0.101-0.183-0.101h-11.653l-4.861 4.554zM7.304 8h-3.826c-0.576 0-1.043-0.448-1.043-1s0.467-1 1.043-1h2.783v-2.667c0-0.552 0.467-1 1.043-1s1.043 0.448 1.043 1v3.667c0 0.552-0.467 1-1.043 1z"></path>
</symbol>
<symbol id="icon-save" viewBox="0 0 24 24">
<path fill="#fff" style="fill: var(--color2, #fff)" d="M23.455 6.951v14.049c-0.001 0.651-0.26 1.275-0.72 1.735s-1.084 0.719-1.735 0.72h-1.636v-8.182c0-0.651-0.259-1.275-0.719-1.736s-1.085-0.719-1.736-0.719h-9.818c-0.651 0-1.275 0.259-1.736 0.719s-0.719 1.085-0.719 1.736v8.182h-1.636c-0.651-0.001-1.275-0.26-1.735-0.72s-0.719-1.084-0.72-1.735v-18c0.001-0.651 0.26-1.275 0.72-1.735s1.084-0.719 1.735-0.72h4.091v4.091c0 0.651 0.259 1.275 0.719 1.736s1.085 0.719 1.736 0.719h4.909c0.651 0 1.275-0.259 1.736-0.719s0.719-1.085 0.719-1.736v-4.091h0.14c0.323-0.001 0.642 0.062 0.94 0.186s0.568 0.305 0.796 0.533l3.95 3.95c0.229 0.227 0.41 0.498 0.533 0.796s0.187 0.617 0.186 0.94zM8.727 0.545v4.091c0 0.217 0.086 0.425 0.24 0.579s0.362 0.24 0.579 0.24h4.909c0.217 0 0.425-0.086 0.579-0.24s0.24-0.362 0.24-0.579v-4.091h-6.545zM17.727 15.273v8.182h-11.455v-8.182c0-0.217 0.086-0.425 0.24-0.579s0.362-0.24 0.579-0.24h9.818c0.217 0 0.425 0.086 0.579 0.24s0.24 0.362 0.24 0.579zM16.091 19.364h-8.182c-0.217 0-0.425 0.086-0.579 0.24s-0.24 0.362-0.24 0.579 0.086 0.425 0.24 0.579c0.153 0.153 0.362 0.24 0.579 0.24h8.182c0.217 0 0.425-0.086 0.579-0.24s0.24-0.362 0.24-0.579-0.086-0.425-0.24-0.579c-0.153-0.153-0.362-0.24-0.579-0.24zM16.091 16.909h-8.182c-0.217 0-0.425 0.086-0.579 0.24s-0.24 0.362-0.24 0.579 0.086 0.425 0.24 0.579c0.153 0.153 0.362 0.24 0.579 0.24h8.182c0.217 0 0.425-0.086 0.579-0.24s0.24-0.362 0.24-0.579-0.086-0.425-0.24-0.579c-0.153-0.153-0.362-0.24-0.579-0.24z"></path>
</symbol>
<symbol id="icon-servings" viewBox="0 0 24 24">
<path fill="none" stroke="#5e00f5" style="stroke: var(--color1, #5e00f5)" stroke-linejoin="round" stroke-linecap="round" stroke-miterlimit="4" stroke-width="3.5632" d="M5 15h-1c-0.53 0-1.039-0.211-1.414-0.586s-0.586-0.884-0.586-1.414v-9c0-0.53 0.211-1.039 0.586-1.414s0.884-0.586 1.414-0.586h9c0.53 0 1.039 0.211 1.414 0.586s0.586 0.884 0.586 1.414v1M11 9h9c1.105 0 2 0.895 2 2v9c0 1.105-0.895 2-2 2h-9c-1.105 0-2-0.895-2-2v-9c0-1.105 0.895-2 2-2z"></path>
</symbol>
<symbol id="icon-share" viewBox="0 0 28 24">
<path fill="#fff" style="fill: var(--color2, #fff)" d="M19.319 0v3.328c-4.888 1.254-11.855 4.609-14.118 11.672 5.655-5.009 13.651-4.464 14.118-4.441v3.328l8.916-6.938-8.916-6.949zM0 3.75v19.125c0 0.589 0.531 1.125 1.115 1.125h18.947c0.584-0 1.114-0.536 1.115-1.125v-8.543l-0.952 0.738-1.277 0.996v5.683h-16.718v-16.875h9.543c1.608-0.97 3.262-1.7 4.83-2.25h-15.488c-0.607 0-1.102 0.651-1.115 1.125z"></path>
</symbol>
<symbol id="icon-search" viewBox="0 0 24 24">
<path d="M9.516 14.016q1.875 0 3.188-1.313t1.313-3.188-1.313-3.188-3.188-1.313-3.188 1.313-1.313 3.188 1.313 3.188 3.188 1.313zM15.516 14.016l4.969 4.969-1.5 1.5-4.969-4.969v-0.797l-0.281-0.281q-1.781 1.547-4.219 1.547-2.719 0-4.617-1.875t-1.898-4.594 1.898-4.617 4.617-1.898 4.594 1.898 1.875 4.617q0 0.984-0.469 2.227t-1.078 1.992l0.281 0.281h0.797z"></path>
</symbol>
<symbol id="icon-undo_ico" viewBox="0 0 30 24">
<path fill="#5e00f5" style="fill: var(--color1, #5e00f5)" d="M6.267 4.824c-0.323 0.323-0.211 0.585 0.249 0.585h14.285c5.054 0 9.151 4.097 9.151 9.152 0 5.057-4.092 9.152-9.151 9.152h-17.472c-0.919 0-1.665-0.739-1.665-1.664 0-0.919 0.75-1.664 1.665-1.664h17.472c3.22 0 5.823-2.605 5.823-5.824 0-3.217-2.607-5.824-5.823-5.824h-14.285c-0.461 0-0.565 0.269-0.249 0.585l1.985 1.985c0.649 0.649 0.652 1.697-0.002 2.351-0.65 0.65-1.698 0.655-2.355-0.002l-5.404-5.404c-0.651-0.651-0.657-1.7 0-2.358l5.404-5.404c0.651-0.651 1.701-0.657 2.355-0.002 0.65 0.65 0.648 1.705 0.002 2.351l-1.985 1.985z"></path>
</symbol>
<symbol id="icon-redo_ico" viewBox="0 0 30 24">
<path fill="#5e00f5" style="fill: var(--color1, #5e00f5)" d="M24.133 4.824c0.323 0.323 0.211 0.585-0.249 0.585h-14.285c-5.054 0-9.151 4.097-9.151 9.152 0 5.057 4.092 9.152 9.151 9.152h17.472c0.919 0 1.665-0.739 1.665-1.664 0-0.919-0.75-1.664-1.665-1.664h-17.472c-3.22 0-5.823-2.605-5.823-5.824 0-3.217 2.607-5.824 5.823-5.824h14.285c0.461 0 0.565 0.269 0.249 0.585l-1.985 1.985c-0.649 0.649-0.652 1.697 0.002 2.351 0.65 0.65 1.698 0.655 2.355-0.002l5.404-5.404c0.651-0.651 0.657-1.7 0-2.358l-5.404-5.404c-0.651-0.651-1.701-0.657-2.355-0.002-0.65 0.65-0.648 1.705-0.002 2.351l1.985 1.985z"></path>
</symbol>
<symbol id="icon-timer" viewBox="0 0 20 20">
<path d="M16.32 7.1c1.044 1.339 1.675 3.045 1.675 4.898 0 4.418-3.582 8-8 8s-8-3.582-8-8c0-4.068 3.036-7.426 6.965-7.934l0.040-0.004v-2.060h2v2.060c1.46 0.18 2.8 0.76 3.9 1.62l1.46-1.46 1.42 1.42-1.46 1.45zM10 18c3.314 0 6-2.686 6-6s-2.686-6-6-6v0c-3.314 0-6 2.686-6 6s2.686 6 6 6v0zM7 0h6v2h-6v-2zM12.12 8.46l1.42 1.42-3.54 3.52-1.41-1.4 3.53-3.54z"></path>
</symbol>
<symbol id="icon-add" viewBox="0 0 21 24">
<path fill="#5e00f5" style="fill: var(--color1, #5e00f5)" d="M20.122 5.352c0-0.168-0.048-0.312-0.168-0.432l-4.128-4.128c-0.12-0.12-0.288-0.168-0.432-0.168h-8.736c-0.816 0-1.488 0.672-1.488 1.488v3.048h-3.048c-0.816 0-1.488 0.672-1.488 1.488v15.264c0 0.816 0.672 1.488 1.488 1.488h12c0.816 0 1.488-0.672 1.488-1.488v-3.048h3.048c0.816 0 1.488-0.672 1.488-1.488l-0.024-12.024zM15.995 2.712l2.016 2.016h-2.016v-2.016zM14.098 22.152h-12c-0.144 0-0.24-0.12-0.24-0.24v-15.264c0-0.144 0.12-0.24 0.24-0.24h8.112v3.504c0 0.336 0.288 0.624 0.624 0.624h3.504v11.376c0.024 0.144-0.096 0.24-0.24 0.24zM11.459 9.288v-2.016l2.016 2.016h-2.016zM18.659 17.616h-3.072v-7.704c0-0.168-0.048-0.312-0.168-0.432l-4.152-4.152c-0.12-0.12-0.288-0.168-0.432-0.168h-4.44v-3.072c0-0.144 0.12-0.24 0.24-0.24h8.112v3.504c0 0.336 0.288 0.624 0.624 0.624h3.504v11.376c0.024 0.144-0.096 0.264-0.216 0.264z"></path>
<path fill="#5e00f5" style="fill: var(--color1, #5e00f5)" d="M11.386 14.712h-2.664v-2.664c0-0.336-0.288-0.624-0.624-0.624s-0.624 0.288-0.624 0.624v2.664h-2.664c-0.336 0-0.624 0.288-0.624 0.624s0.288 0.624 0.624 0.624h2.664v2.664c0 0.336 0.288 0.624 0.624 0.624s0.624-0.288 0.624-0.624v-2.664h2.664c0.336 0 0.624-0.288 0.624-0.624s-0.264-0.624-0.624-0.624z"></path>
</symbol>
<symbol id="icon-sidebar-ico-1" viewBox="0 0 28 24">
<path d="M26.732 0h-25.909c-0.218 0-0.428 0.084-0.582 0.234s-0.241 0.354-0.241 0.566v22.4c0 0.212 0.087 0.416 0.241 0.566s0.364 0.234 0.582 0.234h25.909c0.218 0 0.428-0.084 0.582-0.234s0.241-0.354 0.241-0.566v-22.4c0-0.212-0.087-0.416-0.241-0.566s-0.364-0.234-0.582-0.234zM15.184 20.32c0 0.212-0.087 0.416-0.241 0.566s-0.364 0.234-0.582 0.234h-10.244c-0.218 0-0.428-0.084-0.582-0.234s-0.241-0.354-0.241-0.566v-8c0-0.212 0.087-0.416 0.241-0.566s0.364-0.234 0.582-0.234h10.244c0.218 0 0.428 0.084 0.582 0.234s0.241 0.354 0.241 0.566v8zM24.265 20.32c0 0.212-0.087 0.416-0.241 0.566s-0.364 0.234-0.582 0.234h-4.503c-0.218 0-0.428-0.084-0.582-0.234s-0.241-0.354-0.241-0.566v-8c0-0.212 0.087-0.416 0.241-0.566s0.364-0.234 0.582-0.234h4.499c0.218 0 0.428 0.084 0.582 0.234s0.241 0.354 0.241 0.566l0.003 8zM24.265 8.16c0 0.212-0.087 0.416-0.241 0.566s-0.364 0.234-0.582 0.234h-19.325c-0.218 0-0.428-0.084-0.582-0.234s-0.241-0.354-0.241-0.566v-4.16c0-0.212 0.087-0.416 0.241-0.566s0.364-0.234 0.582-0.234h19.321c0.218 0 0.428 0.084 0.582 0.234s0.241 0.354 0.241 0.566l0.003 4.16z"></path>
</symbol>
<symbol id="icon-sidebar-ico-4" viewBox="0 0 25 24">
<path d="M1.658 1.026h1.074v-1.105h-2.147v2.209h1.074v-1.105zM5.952 8.758h1.074c0 0 0-2.209 1.074-2.209h3.221v9.942c0 0 0 1.105-1.074 1.105h-1.074v1.105h6.442v-1.105h-1.074c-1.074 0-1.074-1.105-1.074-1.105v-9.942h3.221c1.074 0 1.074 2.209 1.074 2.209h1.074v-3.314h-12.883v3.314zM2.731 23.119v1.105h-2.147v-2.209h1.074v1.105h1.074zM1.658 4.34h-1.074v2.209h1.074v-2.209zM0.584 8.759h1.074v2.209h-1.074v-2.209zM1.658 13.177h-1.074v2.209h1.074v-2.209zM0.584 17.596h1.074v2.209h-1.074v-2.209zM24.203 22.014h-1.074v1.105h-1.074v1.105h2.147v-2.209zM22.056-0.079h2.147v2.209h-1.074v-1.105h-1.074v-1.105zM24.204 17.596h-1.074v2.209h1.074v-2.209zM23.13 13.177h1.074v2.209h-1.074v-2.209zM24.204 8.759h-1.074v2.209h1.074v-2.209zM23.13 4.34h1.074v2.209h-1.074v-2.209zM7.026 23.119h-2.147v1.105h2.147v-1.105zM9.173 23.119h2.147v1.105h-2.147v-1.105zM15.614 23.119h-2.147v1.105h2.147v-1.105zM17.762 23.119h2.147v1.105h-2.147v-1.105zM7.026-0.079h-2.147v1.105h2.147v-1.105zM9.173-0.079h2.147v1.105h-2.147v-1.105zM15.614-0.079h-2.147v1.105h2.147v-1.105zM17.762-0.079h2.147v1.105h-2.147v-1.105z"></path>
</symbol>
<symbol id="icon-sidebar-ico-3" viewBox="0 0 28 24">
<path d="M5.013 0c-2.287 0-4.156 2.044-4.156 4.538v14.068c0 2.493 1.87 4.538 4.156 4.538h19.116c2.287 0 4.156-2.044 4.156-4.538v-14.068c0-2.493-1.87-4.538-4.156-4.538h-19.116zM20.452 3.331c1.175 0 2.127 1.039 2.127 2.322s-0.952 2.325-2.127 2.325c-1.175 0-2.13-1.042-2.13-2.325s0.954-2.322 2.13-2.322zM6.743 16.036l4.884-8.656c0.409-0.513 1.335-0.513 1.744 0l3.171 5.616 1.257-2.228c0.291-0.367 0.949-0.367 1.24 0l3.468 6.148c0.655 1.161-0.036 2.585-1.195 2.585-4.296 0-8.592 0-12.889 0-1.648 0-2.603-1.83-1.679-3.465z"></path>
</symbol>
<symbol id="icon-sidebar-ico-2" viewBox="0 0 25 24">
<path d="M16.509 24h5.377c1.485 0 2.689-1.194 2.689-2.667v-5.333c0-1.473-1.204-2.667-2.689-2.667h-5.377c-1.485 0-2.688 1.194-2.688 2.667v5.333c0 1.473 1.204 2.667 2.689 2.667z"></path>
<path d="M16.509 10.667h5.377c1.485 0 2.689-1.194 2.689-2.667v-5.333c0-1.473-1.204-2.667-2.689-2.667h-5.377c-1.485 0-2.688 1.194-2.688 2.667v5.333c0 1.473 1.204 2.667 2.689 2.667z"></path>
<path d="M3.066 10.667h5.377c1.485 0 2.689-1.194 2.689-2.667v-5.333c0-1.473-1.204-2.667-2.689-2.667h-5.377c-1.485 0-2.689 1.194-2.689 2.667v5.333c0 1.473 1.204 2.667 2.689 2.667z"></path>
<path d="M5.755 13.333c-2.97 0-5.377 2.388-5.377 5.333s2.407 5.333 5.377 5.333 5.377-2.388 5.377-5.333c0-2.945-2.407-5.333-5.377-5.333z"></path>
</symbol>
<symbol id="icon-plus" viewBox="0 0 24 24">
<path d="M5 13h6v6c0 0.552 0.448 1 1 1s1-0.448 1-1v-6h6c0.552 0 1-0.448 1-1s-0.448-1-1-1h-6v-6c0-0.552-0.448-1-1-1s-1 0.448-1 1v6h-6c-0.552 0-1 0.448-1 1s0.448 1 1 1z"></path>
</symbol>
<symbol id="icon-arrow-right" viewBox="0 0 24 24">
<path d="M11.293 5.707l5.293 5.293h-11.586c-0.552 0-1 0.448-1 1s0.448 1 1 1h11.586l-5.293 5.293c-0.391 0.391-0.391 1.024 0 1.414s1.024 0.391 1.414 0l7-7c0.092-0.092 0.166-0.202 0.217-0.324 0.101-0.245 0.101-0.521 0-0.766-0.049-0.118-0.121-0.228-0.217-0.324l-7-7c-0.391-0.391-1.024-0.391-1.414 0s-0.391 1.024 0 1.414z"></path>
</symbol>
<symbol id="icon-add-outline" viewBox="0 0 20 20">
<path d="M11 9h4v2h-4v4h-2v-4h-4v-2h4v-4h2v4zM10 20c-5.523 0-10-4.477-10-10s4.477-10 10-10v0c5.523 0 10 4.477 10 10s-4.477 10-10 10v0zM10 18c4.418 0 8-3.582 8-8s-3.582-8-8-8v0c-4.418 0-8 3.582-8 8s3.582 8 8 8v0z"></path>
</symbol>
<symbol id="icon-clear" viewBox="0 0 24 24">
<path d="M18.984 6.422l-5.578 5.578 5.578 5.578-1.406 1.406-5.578-5.578-5.578 5.578-1.406-1.406 5.578-5.578-5.578-5.578 1.406-1.406 5.578 5.578 5.578-5.578z"></path>
</symbol>
<symbol id="icon-nav-home" viewBox="0 0 37 32">
<path d="M18.724 5.839l8.826 7.943v13.786h-3.53v-10.591h-10.591v10.591h-3.53v-13.786l8.826-7.943zM18.724 1.091l-17.651 15.886h5.295v14.121h10.591v-10.591h3.53v10.591h10.591v-14.121h5.295l-17.651-15.886z"></path>
</symbol>
<symbol id="icon-nav-circle" viewBox="0 0 32 32">
<path d="M19.859 0.614l-0.124-0.062-0.015 0.031c-1.081-0.232-2.193-0.371-3.336-0.371-8.526 0-15.445 6.919-15.445 15.445s6.919 15.445 15.445 15.445c8.526 0 15.445-6.919 15.445-15.445 0-7.336-5.112-13.468-11.97-15.043zM27.828 11.024h-12.341l4.186-7.259c3.707 1.019 6.719 3.738 8.155 7.259zM18.082 3.425l-6.147 10.688-4.201-7.259c2.224-2.193 5.282-3.552 8.649-3.552 0.571 0 1.143 0.046 1.699 0.124zM6.653 8.074l4.386 7.583 1.776 3.089h-8.387c-0.247-0.988-0.402-2.023-0.402-3.089 0-2.857 0.988-5.483 2.626-7.584zM4.939 20.291h12.325l-4.186 7.259c-3.707-1.035-6.703-3.738-8.139-7.259zM14.684 27.874l6.163-10.673 4.201 7.259c-2.239 2.193-5.298 3.552-8.665 3.552-0.587 0-1.143-0.062-1.699-0.139v0zM26.114 23.241l-6.178-10.672h8.387c0.263 0.988 0.417 2.023 0.417 3.089 0 2.857-0.988 5.483-2.626 7.583z"></path>
</symbol>
<symbol id="icon-nav-settings" viewBox="0 0 31 32">
<path d="M26.526 17.156c0.062-0.494 0.108-0.988 0.108-1.514s-0.046-1.019-0.108-1.514l3.259-2.548c0.293-0.232 0.371-0.649 0.185-0.988l-3.089-5.344c-0.139-0.247-0.402-0.386-0.68-0.386-0.093 0-0.185 0.015-0.263 0.046l-3.846 1.545c-0.803-0.618-1.668-1.127-2.61-1.514l-0.587-4.093c-0.046-0.371-0.371-0.649-0.757-0.649h-6.178c-0.386 0-0.71 0.278-0.757 0.649l-0.587 4.093c-0.942 0.386-1.807 0.911-2.61 1.514l-3.846-1.545c-0.093-0.031-0.185-0.046-0.278-0.046-0.263 0-0.525 0.139-0.664 0.386l-3.089 5.344c-0.201 0.34-0.108 0.757 0.185 0.988l3.259 2.548c-0.062 0.494-0.108 1.004-0.108 1.514s0.046 1.019 0.108 1.514l-3.259 2.548c-0.293 0.232-0.371 0.649-0.185 0.989l3.089 5.344c0.139 0.247 0.402 0.386 0.68 0.386 0.093 0 0.185-0.015 0.263-0.046l3.846-1.545c0.803 0.618 1.668 1.127 2.61 1.514l0.587 4.093c0.046 0.371 0.371 0.649 0.757 0.649h6.178c0.386 0 0.71-0.278 0.757-0.649l0.587-4.093c0.942-0.386 1.807-0.911 2.61-1.514l3.846 1.545c0.093 0.031 0.185 0.046 0.278 0.046 0.263 0 0.525-0.139 0.664-0.386l3.089-5.344c0.185-0.34 0.108-0.757-0.185-0.989l-3.259-2.548zM23.468 14.515c0.062 0.479 0.077 0.803 0.077 1.127s-0.031 0.664-0.077 1.127l-0.216 1.745 1.375 1.081 1.668 1.297-1.081 1.869-1.961-0.788-1.606-0.649-1.39 1.050c-0.664 0.494-1.297 0.865-1.931 1.127l-1.637 0.664-0.247 1.745-0.309 2.085h-2.162l-0.293-2.085-0.247-1.745-1.637-0.664c-0.664-0.278-1.282-0.633-1.9-1.097l-1.405-1.081-1.637 0.664-1.962 0.788-1.081-1.869 1.668-1.297 1.375-1.081-0.216-1.745c-0.046-0.479-0.077-0.834-0.077-1.143s0.031-0.664 0.077-1.127l0.216-1.745-1.375-1.081-1.668-1.297 1.081-1.869 1.962 0.788 1.606 0.649 1.39-1.050c0.664-0.494 1.297-0.865 1.931-1.127l1.637-0.664 0.247-1.745 0.309-2.085h2.147l0.293 2.085 0.247 1.745 1.637 0.664c0.664 0.278 1.282 0.633 1.9 1.097l1.405 1.081 1.637-0.664 1.961-0.788 1.081 1.869-1.653 1.313-1.375 1.081 0.216 1.745zM15.050 9.465c-3.413 0-6.178 2.765-6.178 6.178s2.765 6.178 6.178 6.178c3.413 0 6.178-2.765 6.178-6.178s-2.765-6.178-6.178-6.178zM15.050 18.731c-1.699 0-3.089-1.39-3.089-3.089s1.39-3.089 3.089-3.089c1.699 0 3.089 1.39 3.089 3.089s-1.39 3.089-3.089 3.089z"></path>
</symbol>
<symbol id="icon-nav-list" viewBox="0 0 54 32">
<path d="M2.123 19.449h5.703v-5.703h-5.703v5.703zM2.123 30.855h5.703v-5.703h-5.703v5.703zM2.123 8.044h5.703v-5.703h-5.703v5.703zM13.529 19.449h39.919v-5.703h-39.919v5.703zM13.529 30.855h39.919v-5.703h-39.919v5.703zM13.529 2.341v5.703h39.919v-5.703h-39.919zM2.123 19.449h5.703v-5.703h-5.703v5.703zM2.123 30.855h5.703v-5.703h-5.703v5.703zM2.123 8.044h5.703v-5.703h-5.703v5.703zM13.529 19.449h39.919v-5.703h-39.919v5.703zM13.529 30.855h39.919v-5.703h-39.919v5.703zM13.529 2.341v5.703h39.919v-5.703h-39.919z"></path>
</symbol>
</defs>
</svg>
